<svg width="69" height="69" viewBox="0 0 69 69" fill="none" xmlns="http://www.w3.org/2000/svg">
<circle cx="34.6868" cy="34.4561" r="34.2268" fill="#BDFF00"/>
<path d="M15 19H55V49H15V19ZM35 26.5C36.7681 26.5 38.4638 27.2902 39.714 28.6967C40.9643 30.1032 41.6667 32.0109 41.6667 34C41.6667 35.9891 40.9643 37.8968 39.714 39.3033C38.4638 40.7098 36.7681 41.5 35 41.5C33.2319 41.5 31.5362 40.7098 30.286 39.3033C29.0357 37.8968 28.3333 35.9891 28.3333 34C28.3333 32.0109 29.0357 30.1032 30.286 28.6967C31.5362 27.2902 33.2319 26.5 35 26.5ZM23.8889 24C23.8889 25.3261 23.4206 26.5979 22.5871 27.5355C21.7536 28.4732 20.6232 29 19.4444 29V39C20.6232 39 21.7536 39.5268 22.5871 40.4645C23.4206 41.4021 23.8889 42.6739 23.8889 44H46.1111C46.1111 42.6739 46.5794 41.4021 47.4129 40.4645C48.2464 39.5268 49.3768 39 50.5556 39V29C49.3768 29 48.2464 28.4732 47.4129 27.5355C46.5794 26.5979 46.1111 25.3261 46.1111 24H23.8889Z" fill="black"/>
</svg>
